<svg id="Layer_1" data-name="Layer 1" xmlns="http://www.w3.org/2000/svg" viewBox="0 0 2920 495.16"><defs><style>.cls-1{fill:aqua;}</style></defs>
<path class="cls-1" d="M0,268.91c128.83,71.49,255.47,82.73,292.23,57.2s110.3-94,154.22-128.68,98-50.05,219.57,38.8,294-35.74,294-35.74V0H0Z"/>
<path class="cls-1" d="M980,466c128.83,71.49,287.28-6.69,336.57-41.87,46.51-33.19,224.69,13.28,276.77-15.32,49.07-26.94,63-94.89,207.32-52.09C1948.74,400.66,1940,200.49,1940,200.49V0H980Z"/>
<path class="cls-1" d="M1960,76.91c128.83,71.49,164.83-13.14,202.19-37.78,48-31.66,243,37.09,292.09,10.21,47.64-26.08,199.15-49,320.68,39.83s145-50,145-50V0H1960Z"/></svg>